<?xml version="1.0" encoding="utf-8"?>
<!-- Generator: Adobe Illustrator 27.3.1, SVG Export Plug-In . SVG Version: 6.00 Build 0)  -->
<svg version="1.1" id="Layer_1" xmlns="http://www.w3.org/2000/svg" xmlns:xlink="http://www.w3.org/1999/xlink" x="0px" y="0px"
	 viewBox="0 0 800 800" style="enable-background:new 0 0 800 800;" xml:space="preserve">
<style type="text/css">
	.st0{fill:none;stroke:#1C274C;stroke-width:50;stroke-linecap:round;stroke-miterlimit:133.3333;}
	.st1{fill:none;stroke:#A6CE39;stroke-width:50;stroke-miterlimit:133.3333;}
</style>
<path class="st0" d="M450,66.7c0,0,77.8,7.1,176.8,106.1s106.1,176.8,106.1,176.8"/>
<path class="st0" d="M473.6,184.5c0,0,33,9.4,82.5,58.9c49.5,49.5,58.9,82.5,58.9,82.5"/>
<path class="st1" d="M627.3,473.3c44.9,25.9,55.4,89.2,19.5,127l-39.1,41.2c-12.2,12.8-28.8,23.8-49.4,25.8
	c-50.2,5-166.5-1.5-288.4-129.9C156.1,417.6,134.5,313.5,131.7,262.6c-1.3-25.2,9.9-46.7,24.6-62.3l43.2-45.5
	c33.7-35.5,89.6-28.9,117.5,10.6c0,0,34.7,49.1,34.7,49.1c9.2,13,14.5,28.8,15.2,44.7c0.4,8-0.4,16.1-2.3,23.9
	c-1.8,7.2-4.4,16-8.5,22.2c-1.3,2-2.9,3.8-4.5,5.6c-3.5,3.7-7.4,7.2-10,11.6c-4.8,8.2-2.9,15.8-0.4,24.3c2.8,9.3,7.9,18.1,13.3,26.1
	c10.2,15,22.8,28.5,34.7,42.1c4.1,4.6,8.9,8.7,13.4,12.9c3.9,3.7,7.8,7.3,11.7,10.8c13.4,12,27.6,23.6,45.4,28.3
	c3.3,0.9,6.8,1.5,10,0.4c2.8-0.9,5-3,7-5.1c8.7-8.8,16.7-16.8,27.9-22.3c1.9-0.9,3.9-1.8,5.9-2.5c10-3.8,20.9-5.4,31.6-4.6
	c11,0.8,21.8,4.1,31.4,9.4c0.4,0.2,0.8,0.4,1.2,0.7C574.7,443,627.3,473.3,627.3,473.3z"/>
</svg>
