<?xml version="1.0" encoding="utf-8"?>
<!-- Generator: Adobe Illustrator 27.3.1, SVG Export Plug-In . SVG Version: 6.00 Build 0)  -->
<svg version="1.1" id="Layer_1" xmlns="http://www.w3.org/2000/svg" xmlns:xlink="http://www.w3.org/1999/xlink" x="0px" y="0px"
	 viewBox="0 0 31.9 32" style="enable-background:new 0 0 31.9 32;" xml:space="preserve">
<style type="text/css">
	.st0{display:none;fill:url(#SVGID_1_);}
	.st1{display:none;fill:url(#SVGID_00000142149827487727109230000010563927200343800205_);}
	.st2{display:none;}
	.st3{display:inline;fill:#FFFFFF;}
	.st4{fill:#FFFFFF;}
</style>
<linearGradient id="SVGID_1_" gradientUnits="userSpaceOnUse" x1="-559.6389" y1="26.5651" x2="-559.0543" y2="27.2727" gradientTransform="matrix(31.8754 0 0 28.4068 17845.9961 -754.5071)">
	<stop  offset="0" style="stop-color:#41D1FF"/>
	<stop  offset="1" style="stop-color:#BD34FE"/>
</linearGradient>
<path class="st0" d="M31.8,4.7l-15,26.8c-0.3,0.6-1.1,0.6-1.4,0L0.1,4.7C-0.2,4.1,0.3,3.4,1,3.5l15,2.7c0.1,0,0.2,0,0.3,0L31,3.5
	C31.6,3.4,32.1,4.1,31.8,4.7z"/>
<linearGradient id="SVGID_00000011717874481077857980000010708765905151319990_" gradientUnits="userSpaceOnUse" x1="-537.988" y1="28.467" x2="-537.9186" y2="29.3348" gradientTransform="matrix(14.6164 0 0 26.6459 7881.2656 -758.0158)">
	<stop  offset="0" style="stop-color:#FFEA83"/>
	<stop  offset="8.333001e-02" style="stop-color:#FFDD35"/>
	<stop  offset="1" style="stop-color:#FFA800"/>
</linearGradient>
<path style="display:none;fill:url(#SVGID_00000011717874481077857980000010708765905151319990_);" d="M23.1,0L12,2.2
	c-0.2,0-0.3,0.2-0.3,0.4L11,14.1c0,0.2,0.2,0.4,0.4,0.4h0.1l3.1-0.7c0.3-0.1,0.5,0.2,0.5,0.5l-0.9,4.5c-0.1,0.3,0.2,0.6,0.5,0.5
	l1.9-0.6c0.3-0.1,0.6,0.2,0.5,0.5l-1.5,7.1c-0.1,0.4,0.5,0.7,0.7,0.3l0.2-0.3l9-18c0.2-0.3-0.1-0.6-0.4-0.6L22,8.2
	c-0.3,0.1-0.6-0.2-0.5-0.5l2.1-7.2C23.6,0.2,23.4-0.1,23.1,0L23.1,0z"/>
<g class="st2">
	<path class="st3" d="M4.9,10.4C7.5,6.9,10.1,3.5,12.8,0C19,0,25.1,0,31.3,0c-0.9,2.1-1.7,4.1-2.6,6.2H17c-0.7,0-1.3,0.2-1.8,0.7
		l0,0c-0.3,0.3-0.5,0.6-0.7,0.8c-1.5,0.1-3.4,0.4-5.4,1C7.5,9.2,6,9.8,4.9,10.4z"/>
	<path class="st3" d="M28.5,25.9c-3,0-6,0-9-0.1c-0.7,0.3-1.6,0.8-2.5,1.4c-1.4,1.1-2.3,2.4-2.8,3.2c0.1-0.7,0.2-1.7,0.6-2.8
		c0.1-0.4,0.8-2.2,2.6-4.1c1-1.1,3.2-3.5,6.4-3.7c0.7-0.1,1.8-0.1,2.9,0.5c0.8,0.5,1.2,1.2,1.4,1.6c0.2-0.9,0.6-2.8-0.1-5
		c-0.2-0.6-0.5-1.5-1.3-2.5c-1.5-2-3.4-2.9-4.5-3.3c-4.2-1.8-8.5-1-10.4-0.6c-5.4,1-9.2,3.8-11.3,5.5c1.1,1.4,2.2,2.8,3.3,4.2
		c1.9-0.9,4.1-1.7,6.5-2.4c1.1-0.3,2.1-0.6,3.1-0.8c-0.6,0.6-1.3,1.3-2,2.1c-1.8,2-3.1,3.9-4.2,5.7c0,0,0.4,0.6,0.4,0.7
		C7.8,25.7,8,25.9,8.1,26c1.1,1.4,2,2.8,3.1,4.1c0.3,0.4,0.6,0.9,1.1,1.2c0.4,0.3,0.9,0.5,1.5,0.6c0.9,0.2,1.8,0.1,2.7,0
		c3.7-0.2,7.4-0.1,11.1,0c1.1,0,2.3,0,3.4,0C30.2,29.9,29.4,27.9,28.5,25.9z M19.7,13.6c1.5,0.3,2.3,1.4,2.4,1.6
		c-0.1,0.1-1.4,1.2-3,0.8c-1.5-0.3-2.1-1.5-2.3-1.7C17,14.2,18.1,13.3,19.7,13.6z"/>
</g>
<g>
	<path class="st4" d="M13.4,12.2l-1.3,2.2h11.3l-1.9,3.2H11.6c-0.8,0-1.5,0.4-1.9,1.1l-1.2,2.2H0.9l3.6-6.2l0.2-0.3l1.9-3.3L7,10.3
		c1.1-1.5,2.9-2.5,4.8-2.5H31l-1.8,3.2H15.3C14.5,11.1,13.8,11.5,13.4,12.2z"/>
	<polygon class="st4" points="23.5,20.9 21.6,24.1 6.5,24.1 8.4,20.9 	"/>
</g>
</svg>
